<?xml version="1.0" encoding="UTF-8" standalone="no"?>
<!DOCTYPE svg PUBLIC "-//W3C//DTD SVG 1.1//EN" "http://www.w3.org/Graphics/SVG/1.1/DTD/svg11.dtd">
<svg width="100%" height="100%" viewBox="0 0 4001 4001" version="1.1" xmlns="http://www.w3.org/2000/svg" xmlns:xlink="http://www.w3.org/1999/xlink" xml:space="preserve" xmlns:serif="http://www.serif.com/" style="fill-rule:evenodd;clip-rule:evenodd;stroke-linejoin:round;stroke-miterlimit:2;">
    <g>
        <rect x="0.08" y="0.136" width="4000" height="4000" style="fill:white;"/>
        <path d="M2000.08,2000.14L2067.74,1270.71L2135.4,541.279L1864.76,541.279L1932.42,1270.71L2000.08,2000.14Z"/>
        <path d="M2000.08,2000.14L1814.18,1291.56L1628.28,582.975L1501.12,629.259L1373.96,675.542L1687.02,1337.84L2000.08,2000.14Z"/>
        <path d="M2000.08,2000.14L1583.05,1397.87L1166.01,795.602L1062.34,882.587L958.682,969.571L1479.38,1484.85L2000.08,2000.14Z"/>
        <path d="M2000.08,2000.14L1402.21,1576.83L804.334,1153.51L736.672,1270.71L669.012,1387.9L1334.55,1694.02L2000.08,2000.14Z"/>
        <path d="M2000.08,2000.14L1293.48,1806.84L586.885,1613.54L563.387,1746.81L539.887,1880.08L1269.98,1940.11L2000.08,2000.14Z"/>
        <path d="M2000.08,2000.14L1269.98,2060.17L539.887,2120.2L563.387,2253.46L586.885,2386.73L2000.08,2000.14Z"/>
        <path d="M2000.08,2000.14L1334.55,2306.25L669.012,2612.37L736.672,2729.57L804.334,2846.76L1402.21,2423.45L2000.08,2000.14Z"/>
        <path d="M2000.08,2000.14L1479.38,2515.42L958.682,3030.7L1062.34,3117.68L1166.01,3204.67L1583.05,2602.4L2000.08,2000.14Z"/>
        <path d="M2000.08,2000.14L1687.02,2662.43L1373.96,3324.73L1501.12,3371.01L1628.28,3417.3L1814.18,2708.72L2000.08,2000.14Z"/>
        <path d="M2000.08,2000.14L1932.42,2729.57L1864.76,3458.99L2135.4,3458.99L2067.74,2729.57L2000.08,2000.14Z"/>
        <path d="M2000.08,2000.14L2185.98,2708.72L2371.88,3417.3L2499.04,3371.01L2626.2,3324.73L2000.08,2000.14Z"/>
        <path d="M2000.08,2000.14L2417.12,2602.4L2834.15,3204.67L2937.81,3117.68L3041.48,3030.7L2520.78,2515.42L2000.08,2000.14Z"/>
        <path d="M2000.08,2000.14L2597.95,2423.45L3195.83,2846.76L3263.49,2729.57L3331.15,2612.37L2665.62,2306.25L2000.08,2000.14Z"/>
        <path d="M2000.08,2000.14L3413.28,2386.73L3436.77,2253.46L3460.27,2120.2L2730.18,2060.17L2000.08,2000.14Z"/>
        <path d="M2000.08,2000.14L2730.18,1940.11L3460.27,1880.08L3436.77,1746.81L3413.28,1613.54L2706.68,1806.84L2000.08,2000.14Z"/>
        <path d="M2000.08,2000.14L2665.62,1694.02L3331.15,1387.9L3263.49,1270.71L3195.83,1153.51L2597.95,1576.83L2000.08,2000.14Z"/>
        <path d="M2000.08,2000.14L2520.78,1484.85L3041.48,969.571L2937.81,882.587L2834.15,795.602L2417.12,1397.87L2000.08,2000.14Z"/>
        <path d="M2000.08,2000.14L2626.2,675.542L2499.04,629.259L2371.88,582.975L2185.98,1291.56L2000.08,2000.14Z"/>
        <path d="M2534.86,2433.85C2371.74,2523.74 2185.95,2567.88 2000.08,2567.88C1814.21,2567.88 1628.42,2523.74 1465.3,2433.85C1309.99,2348.26 1177.18,2221.43 1097.4,2061.9L1066.51,2000.14L1097.4,1938.37C1177.18,1778.84 1309.99,1652.01 1465.3,1566.42C1628.42,1476.53 1814.21,1432.39 2000.08,1432.39C2185.95,1432.39 2371.74,1476.53 2534.86,1566.42C2690.17,1652.01 2822.98,1778.84 2902.76,1938.37L2933.65,2000.14L2902.76,2061.9C2822.98,2221.43 2690.17,2348.26 2534.86,2433.85Z" style="fill:white;"/>
        <path d="M2466.05,2345.48C2332.44,2419.11 2172.14,2462.05 2000.08,2462.05C1828.02,2462.05 1667.72,2419.11 1534.11,2345.48C1394.78,2268.7 1284.2,2158.2 1218.9,2027.64L1205.15,2000.14L1218.9,1972.64C1284.2,1842.07 1394.78,1731.57 1534.11,1654.79C1667.72,1581.16 1828.02,1538.22 2000.08,1538.22C2172.14,1538.22 2332.44,1581.16 2466.05,1654.79C2605.38,1731.57 2715.96,1842.07 2781.26,1972.64L2795.01,2000.14L2781.26,2027.64C2715.96,2158.2 2605.38,2268.7 2466.05,2345.48Z" style="fill-rule:nonzero;"/>
        <path d="M2406.71,2237.41C2514.39,2178.08 2601.17,2096.08 2656.46,2000.14C2601.17,1904.19 2514.39,1822.19 2406.71,1762.86C2290.8,1698.98 2150.96,1661.72 2000.08,1661.72C1849.2,1661.72 1709.36,1698.98 1593.45,1762.86C1485.78,1822.19 1398.99,1904.19 1343.7,2000.14C1398.99,2096.08 1485.78,2178.08 1593.45,2237.41C1709.36,2301.29 1849.2,2338.55 2000.08,2338.55C2150.96,2338.55 2290.8,2301.29 2406.71,2237.41Z" style="fill:white;"/>
        <path d="M2000.08,1719.63C2155,1719.63 2280.59,1845.22 2280.59,2000.14C2280.59,2155.06 2155,2280.64 2000.08,2280.64C1845.16,2280.64 1719.57,2155.06 1719.57,2000.14C1719.57,1845.22 1845.16,1719.63 2000.08,1719.63Z"/>
        <path d="M2144.12,1751.85C2209.02,1751.85 2261.64,1804.46 2261.64,1869.36C2261.64,1934.26 2209.02,1986.87 2144.12,1986.87C2079.23,1986.87 2026.62,1934.26 2026.62,1869.36C2026.62,1804.46 2079.23,1751.85 2144.12,1751.85Z" style="fill:white;"/>
    </g>
</svg>
